Coordinates
version=1
nRows=26
nColumns=32
inDegrees=no

Units are S.I. units (second, meters, Newtons, ...)
If the header above contains a line with 'inDegrees', this indicates whether rotational values are in degrees (yes) or radians (no).

endheader
time	pelvis_tilt	pelvis_list	pelvis_rotation	pelvis_tx	pelvis_ty	pelvis_tz	hip_flexion_r	hip_adduction_r	hip_rotation_r	knee_angle_r	ankle_angle_r	subtalar_angle_r	mtp_angle_r	hip_flexion_l	hip_adduction_l	hip_rotation_l	knee_angle_l	ankle_angle_l	subtalar_angle_l	mtp_angle_l	lumbar_extension	lumbar_bending	lumbar_rotation	arm_flex_r	arm_add_r	arm_rot_r	elbow_flex_r	arm_flex_l	arm_add_l	arm_rot_l	elbow_flex_l
0	-0.237096	0.124172	0.0906147	0.879515	1.01624	-0.309456	-0.104453	-0.166696	-0.408273	0.418736	-0.217149	0.0657113	-0.00405734	0.839127	0.0501265	-0.225001	1.14965	0.0515936	-0.102158	-0.067829	0.0341066	-0.140833	0.0958158	-0.494216	-0.248976	-0.213134	2.05639	-0.864346	-0.300472	-0.168919	2.07626
0.005	-0.238537	0.12856	0.0933668	0.881439	1.01893	-0.309877	-0.130001	-0.167494	-0.416557	0.394061	-0.273505	0.06802	-0.00407116	0.828239	0.0571022	-0.236312	1.0707	0.0553133	-0.0748126	-0.0678138	0.040125	-0.147857	0.0984681	-0.501287	-0.251325	-0.205848	2.07145	-0.883208	-0.300146	-0.179974	2.08683
0.01	-0.240005	0.131997	0.0953439	0.883272	1.02127	-0.310304	-0.152947	-0.167982	-0.421763	0.374792	-0.32554	0.0641186	-0.00408497	0.816599	0.0632589	-0.250002	0.991092	0.0565792	-0.0444304	-0.0677986	0.04618	-0.153648	0.101333	-0.508477	-0.253824	-0.198803	2.08572	-0.901299	-0.299543	-0.190539	2.09671
0.015	-0.241509	0.134465	0.0965449	0.885018	1.02327	-0.310714	-0.173265	-0.168146	-0.423879	0.360975	-0.373182	0.0540335	-0.00409878	0.804259	0.0685705	-0.266133	0.910911	0.0553609	-0.0110068	-0.0677834	0.0522786	-0.15819	0.104411	-0.515785	-0.256474	-0.192006	2.09921	-0.918608	-0.298663	-0.200608	2.10589
0.02	-0.243076	0.135915	0.0969719	0.886679	1.02491	-0.311088	-0.190882	-0.167949	-0.422864	0.352736	-0.416202	0.0378737	-0.0041126	0.791376	0.0729676	-0.2849	0.830422	0.051595	0.0254934	-0.0677682	0.0584389	-0.161435	0.107704	-0.523212	-0.259277	-0.185471	2.1119	-0.935101	-0.297514	-0.210156	2.11439
0.025	-0.244741	0.13627	0.0966379	0.88825	1.0262	-0.311407	-0.205682	-0.167328	-0.418657	0.350284	-0.454162	0.0158998	-0.00412642	0.778225	0.0763436	-0.306652	0.750134	0.0452218	0.06517	-0.067753	0.0646813	-0.163313	0.111202	-0.530753	-0.262238	-0.179229	2.12378	-0.950707	-0.296106	-0.219138	2.12221
0.03	-0.246542	0.135448	0.0955798	0.889725	1.02712	-0.311658	-0.217538	-0.1662	-0.411209	0.353873	-0.486458	-0.0114203	-0.00414023	0.765178	0.0785832	-0.331845	0.670808	0.0362438	0.108212	-0.0677378	0.0710091	-0.163746	0.114867	-0.538397	-0.26536	-0.173326	2.1348	-0.965312	-0.294451	-0.227477	2.12936
0.035	-0.248496	0.133383	0.0938771	0.891095	1.02767	-0.311837	-0.226351	-0.164469	-0.40054	0.36372	-0.512454	-0.0433759	-0.00415406	0.752646	0.0796076	-0.360929	0.593406	0.0247684	0.154872	-0.0677226	0.0773863	-0.162673	0.118615	-0.546121	-0.268648	-0.167826	2.14488	-0.978763	-0.292555	-0.235083	2.13582
0.04	-0.250589	0.130052	0.0916732	0.89235	1.02786	-0.311947	-0.232096	-0.162043	-0.386824	0.379923	-0.531667	-0.0790095	-0.00416788	0.741022	0.0794236	-0.394169	0.518994	0.0110076	0.205373	-0.0677074	0.0837221	-0.160076	0.122292	-0.553883	-0.272098	-0.162802	2.1539	-0.990876	-0.290416	-0.241866	2.14157
0.045	-0.25277	0.125494	0.089185	0.893485	1.02771	-0.312001	-0.234844	-0.158851	-0.370438	0.402386	-0.543964	-0.117162	-0.00418171	0.730636	0.0781637	-0.431455	0.44864	-0.00475692	0.259761	-0.0676922	0.0898703	-0.156013	0.12566	-0.561621	-0.275688	-0.158321	2.16174	-1.00146	-0.288021	-0.247762	2.14657
0.05	-0.254964	0.119831	0.0866943	0.894495	1.02725	-0.312024	-0.234752	-0.154862	-0.351963	0.43082	-0.549719	-0.156595	-0.00419554	0.721719	0.076096	-0.472148	0.383307	-0.0222173	0.317747	-0.067677	0.0956446	-0.150641	0.128406	-0.569252	-0.279377	-0.154429	2.16825	-1.01033	-0.285355	-0.252753	2.15077
0.055	-0.257081	0.113264	0.0845212	0.895378	1.02651	-0.312048	-0.23204	-0.150103	-0.332116	0.464773	-0.549891	-0.196146	-0.00420937	0.714394	0.073595	-0.514995	0.323778	-0.0410656	0.378577	-0.0676618	0.100846	-0.144215	0.13017	-0.576676	-0.283097	-0.151141	2.17328	-1.01737	-0.282398	-0.256882	2.15415
0.06	-0.259036	0.106048	0.082989	0.896133	1.02554	-0.312109	-0.226948	-0.144639	-0.311661	0.503694	-0.545947	-0.234842	-0.0042232	0.708683	0.071075	-0.55818	0.270621	-0.0609879	0.440978	-0.0676466	0.105289	-0.137068	0.130583	-0.583778	-0.286753	-0.148439	2.17669	-1.02252	-0.279139	-0.260259	2.1567
0.065	-0.260753	0.0984633	0.0823817	0.896757	1.02436	-0.312236	-0.219707	-0.138569	-0.291323	0.547007	-0.539644	-0.271925	-0.00423704	0.704517	0.0689038	-0.599505	0.224192	-0.0816309	0.503203	-0.0676314	0.108816	-0.129571	0.129319	-0.590434	-0.290225	-0.146271	2.17835	-1.02576	-0.27559	-0.263042	2.15842
0.07	-0.262167	0.0907801	0.0829009	0.897247	1.02302	-0.312449	-0.210515	-0.132007	-0.271715	0.594157	-0.53274	-0.306816	-0.00425088	0.701761	0.0673213	-0.636719	0.184687	-0.102564	0.563192	-0.0676162	0.111305	-0.122094	0.126149	-0.596524	-0.293372	-0.144573	2.17815	-1.02713	-0.271804	-0.265412	2.15938
0.075	-0.263221	0.0832373	0.0846306	0.897599	1.02153	-0.312753	-0.199527	-0.125083	-0.253297	0.644649	-0.52672	-0.339057	-0.00426472	0.700236	0.0663793	-0.667924	0.15219	-0.123279	0.618852	-0.067601	0.112676	-0.114965	0.120991	-0.601945	-0.296041	-0.143285	2.17604	-1.02671	-0.26788	-0.267536	2.15964
0.08	-0.263884	0.0760249	0.0875238	0.897804	1.01991	-0.313134	-0.186848	-0.117949	-0.236364	0.698051	-0.522588	-0.368247	-0.00427857	0.699752	0.0659211	-0.691958	0.126734	-0.143252	0.668385	-0.0675858	0.112905	-0.108442	0.113926	-0.60664	-0.298087	-0.142376	2.17197	-1.02458	-0.26397	-0.269529	2.15929
0.085	-0.264146	0.0692812	0.0914197	0.897859	1.01817	-0.313569	-0.172542	-0.110772	-0.221074	0.753975	-0.520775	-0.394003	-0.00429241	0.700123	0.0656227	-0.708554	0.108303	-0.162028	0.710518	-0.0675707	0.112024	-0.1027	0.105189	-0.61061	-0.299381	-0.141848	2.16596	-1.02086	-0.260263	-0.271436	2.15841
0.09	-0.264011	0.0631023	0.0960868	0.897769	1.01631	-0.314022	-0.156678	-0.103742	-0.207492	0.812047	-0.52115	-0.41596	-0.00430626	0.701158	0.0650935	-0.718154	0.0967966	-0.179292	0.744499	-0.0675555	0.11011	-0.0978387	0.0951115	-0.613912	-0.299832	-0.141733	2.15809	-1.01564	-0.256964	-0.273241	2.15708
0.095	-0.263484	0.0575637	0.101268	0.89755	1.01434	-0.314463	-0.139365	-0.0970697	-0.195628	0.871874	-0.523129	-0.433819	-0.00432011	0.702633	0.0639938	-0.72157	0.0919584	-0.194868	0.769978	-0.0675403	0.107248	-0.0939165	0.0840642	-0.616648	-0.299385	-0.142075	2.14843	-1.00906	-0.254262	-0.274889	2.1554
0.1	-0.262536	0.0527525	0.106712	0.897226	1.01224	-0.314865	-0.120806	-0.0909946	-0.185458	0.933026	-0.525811	-0.447412	-0.00433396	0.704237	0.0621362	-0.719654	0.0933191	-0.208667	0.786855	-0.0675252	0.103496	-0.0909873	0.072405	-0.618939	-0.298022	-0.142906	2.13713	-1.00124	-0.252312	-0.276325	2.15343
0.105	-0.261086	0.0488056	0.112188	0.896835	1.01004	-0.315211	-0.101323	-0.0858115	-0.176925	0.995034	-0.528145	-0.456744	-0.00434782	0.70554	0.0595537	-0.71308	0.100175	-0.220597	0.795191	-0.06751	0.0988448	-0.0891471	0.060452	-0.62091	-0.295759	-0.14423	2.12433	-0.992331	-0.251221	-0.277508	2.15126
0.11	-0.258994	0.0459279	0.117491	0.896423	1.00774	-0.315496	-0.081356	-0.0818803	-0.169936	1.05741	-0.529076	-0.462007	-0.00436168	0.706	0.0565087	-0.702265	0.111634	-0.230441	0.795182	-0.0674949	0.0932042	-0.0885544	0.0484704	-0.622673	-0.292639	-0.146007	2.11017	-0.982506	-0.251054	-0.278426	2.14894
0.115	-0.256087	0.0443698	0.122446	0.896037	1.00536	-0.315721	-0.0613947	-0.0795969	-0.164352	1.11968	-0.527686	-0.463569	-0.00437553	0.705035	0.0534327	-0.687419	0.126762	-0.237746	0.787191	-0.0674798	0.0864322	-0.0894097	0.0366602	-0.624319	-0.288732	-0.148158	2.0948	-0.971934	-0.251832	-0.279095	2.14653
0.12	-0.252205	0.0443682	0.126922	0.89572	1.00291	-0.315898	-0.0418922	-0.0793273	-0.159997	1.18143	-0.523299	-0.461944	-0.00438939	0.702162	0.0508161	-0.668657	0.144769	-0.241726	0.771794	-0.0674646	0.0783801	-0.0919016	0.0251391	-0.625913	-0.284125	-0.150573	2.07835	-0.960776	-0.253535	-0.279563	2.14403
0.125	-0.247245	0.0460929	0.130846	0.895499	1.00042	-0.316042	-0.0231751	-0.0813485	-0.156668	1.24234	-0.515575	-0.457764	-0.00440326	0.697111	0.0491049	-0.646146	0.16519	-0.24124	0.749795	-0.0674495	0.0689382	-0.096158	0.0139317	-0.62748	-0.278927	-0.153122	2.06095	-0.94917	-0.256107	-0.279892	2.14143
